<?xml version="1.0" ?><svg id="Layer_1" style="enable-background:new 0 0 128 128;" version="1.1" viewBox="0 0 128 128" xml:space="preserve" xmlns="http://www.w3.org/2000/svg" xmlns:xlink="http://www.w3.org/1999/xlink"><style type="text/css">
	.st0{fill:#0D6291;}
	.st1{fill:#D5D5E5;}
	.st2{fill:#FCFEF9;}
	.st3{fill:#FFFFFF;}
	.st4{fill:none;stroke:#B2193A;stroke-width:3;stroke-miterlimit:10;}
</style><title/><rect class="st0" height="52" width="90" x="19" y="71"/><polyline class="st1" points="19,71 64,99.1 109,71 "/><polyline class="st1" points="109,71 64,32.9 19,71 "/><g><polygon class="st2" points="64,110.2 65.1,113.7 68.8,113.6 65.7,115.7 66.9,119.2 64,117 61.1,119.2 62.3,115.7 59.2,113.6    62.9,113.7  "/><polygon class="st2" points="49,110.2 50.1,113.7 53.8,113.6 50.7,115.7 51.9,119.2 49,117 46.1,119.2 47.3,115.7 44.2,113.6    47.9,113.7  "/><polygon class="st2" points="79,110.2 80.1,113.7 83.8,113.6 80.7,115.7 81.9,119.2 79,117 76.1,119.2 77.3,115.7 74.2,113.6    77.9,113.7  "/></g><polygon class="st1" points="25,74.7 25,71 25,6 103,6 103,71 103,74.7 100,76.6 64,99.1 28,76.6 "/><polygon class="st3" points="100,9 100,76.6 64,99.1 28,76.6 28,9 "/><rect class="st1" height="8" width="52" x="38" y="20"/><rect class="st1" height="8" width="8" x="38" y="42"/><rect class="st1" height="6" width="36" x="54" y="43"/><rect class="st1" height="8" width="8" x="38" y="58"/><rect class="st1" height="6" width="36" x="54" y="59"/><rect class="st1" height="8" width="8" x="38" y="74"/><rect class="st1" height="6" width="36" x="54" y="75"/><polyline class="st4" points="38,44 42,48 50,40 "/></svg>