<?xml version="1.0" ?><!DOCTYPE svg  PUBLIC '-//W3C//DTD SVG 1.1//EN'  'http://www.w3.org/Graphics/SVG/1.1/DTD/svg11.dtd'><svg enable-background="new 0 0 30 30" height="30px" id="Capa_1" version="1.1" viewBox="0 0 30 30" width="30px" xml:space="preserve" xmlns="http://www.w3.org/2000/svg" xmlns:xlink="http://www.w3.org/1999/xlink"><g><g><path d="M18.6,20.6c2.9,0,5.2-2.4,5.2-5.2c0-0.4-0.3-0.8-0.8-0.8c-1.8,0-2.3,0-2.8,0c-0.3,0-0.5,0-1,0l0-3.8    c0-0.4-0.3-0.8-0.8-0.8c-2.9,0-5.2,2.4-5.2,5.2C13.3,18.2,15.7,20.6,18.6,20.6z M17.8,11.6l0,3.7c0,0.4,0.3,0.8,0.8,0.8    c1,0,1.3,0,1.7,0c0.4,0,0.8,0,2,0c-0.3,1.7-1.9,3-3.7,3c-2.1,0-3.7-1.7-3.7-3.7C14.8,13.5,16.1,12,17.8,11.6z M20.1,9.3    c0,1.7,0,1.9,0,4.5c2.6,0,2.1,0,4.5,0C24.6,11.3,22.6,9.3,20.1,9.3z M5.4,19.4H10c0.4,0,0.8-0.3,0.8-0.8s-0.3-0.8-0.8-0.8H5.7    l0-0.4c0.1-0.3,0.8-1.3,2.1-1.5c0.7,0.5,1.8,0.7,2.5,0.7c0.4,0,0.8-0.3,0.8-0.7c0-0.4-0.3-0.8-0.8-0.8c-0.6,0-1.5-0.3-1.6-0.5    c-0.2-0.2-0.4-0.3-0.6-0.3c-2.3,0.1-3.8,2.1-3.8,3v0.8C4.2,18.9,4.7,19.4,5.4,19.4z M29.1,2H0.9C0.5,2,0.1,2.4,0.1,2.8v24.4    c0,0.4,0.3,0.8,0.8,0.8h5.7c0.4,0,0.8-0.3,0.8-0.8v-1.5c0-0.8,0.6-1.4,1.4-1.4s1.4,0.6,1.4,1.4v1.5c0,0.4,0.3,0.8,0.8,0.8h8.5    c0.4,0,0.8-0.3,0.8-0.8v-1.5c0-0.8,0.6-1.4,1.4-1.4s1.4,0.6,1.4,1.4v1.5c0,0.4,0.3,0.8,0.8,0.8h5.3c0.4,0,0.8-0.3,0.8-0.8V2.8    C29.9,2.4,29.5,2,29.1,2z M28.4,26.5h-3.8v-0.7c0-1.6-1.3-2.9-2.9-2.9s-2.9,1.3-2.9,2.9v0.7h-7v-0.7c0-1.6-1.3-2.9-2.9-2.9    s-2.9,1.3-2.9,2.9v0.7H1.6V3.5h26.7V26.5z M10.3,14.6c1.8,0,3.2-1.7,3.2-3.9c0-2.2-1.4-3.9-3.2-3.9s-3.2,1.8-3.2,3.9    C7.1,12.8,8.5,14.6,10.3,14.6z M10.3,8.3c0.9,0,1.7,1.1,1.7,2.4c0,1.3-0.8,2.4-1.7,2.4c-0.9,0-1.7-1.1-1.7-2.4    C8.6,9.4,9.4,8.3,10.3,8.3z" fill="#262324"/></g></g></svg>